<svg width="32" height="23" viewBox="0 0 32 23" fill="none" xmlns="http://www.w3.org/2000/svg">
<rect y="15.2523" width="18.0701" height="7.87674" rx="3.93837" transform="rotate(-43.4952 0 15.2523)" fill="#FF9D00"/>
<rect x="12.1219" y="14.4188" width="20.2947" height="7.87674" rx="3.93837" transform="rotate(-45.2735 12.1219 14.4188)" fill="#51CCEE"/>
<path d="M21.0881 5.53893C18.0127 8.65852 15.4645 11.2433 15.4645 11.2433C15.4645 11.2433 12.8285 13.9173 9.84093 16.9477C6.7397 13.8904 6.74343 8.85804 9.84926 5.70759C12.9551 2.55714 17.9869 2.48163 21.0881 5.53893Z" fill="#F73C5C"/>
<path d="M9.75177 16.8599C12.8272 13.7403 15.3754 11.1555 15.3754 11.1555C15.3754 11.1555 18.0114 8.48154 20.999 5.45108C24.1002 8.50838 24.0965 13.5408 20.9906 16.6912C17.8848 19.8417 12.853 19.9172 9.75177 16.8599Z" fill="#2A8BEA"/>
</svg>
