<svg xmlns="http://www.w3.org/2000/svg" width="1200" height="630" viewBox="0 0 1200 630">
  <defs>
    <linearGradient id="bg" x1="0" y1="0" x2="1" y2="1">
      <stop offset="0%" stop-color="#6366f1"/>
      <stop offset="100%" stop-color="#2A8BEA"/>
    </linearGradient>
  </defs>
  <rect width="1200" height="630" fill="url(#bg)"/>
  <g transform="translate(120,235) scale(2.4)">
    <rect width="45.175" height="19.692" y="38.131" fill="#FF9D00" rx="9.846" transform="rotate(-43.495 0 38.13)"/>
    <rect width="50.737" height="19.692" x="30.305" y="36.047" fill="#51CCEE" rx="9.846" transform="rotate(-45.273 30.305 36.047)"/>
    <path fill="#F73C5C" d="M52.72 13.847c-7.688 7.8-14.059 14.261-14.059 14.261L24.602 42.37c-7.753-7.643-7.743-20.224.021-28.1 7.765-7.876 20.344-8.065 28.097-.422Z"/>
    <path fill="#fff" d="m24.38 42.15 14.058-14.261 14.06-14.261c7.753 7.643 7.743 20.224-.021 28.1-7.765 7.876-20.344 8.065-28.098.422Z"/>
  </g>
  <text x="320" y="300" font-family="Arial, sans-serif" font-size="96" font-weight="800" fill="#ffffff">Pullstok</text>
  <text x="120" y="400" font-family="Arial, sans-serif" font-size="36" fill="#ffffff" opacity="0.92">Tu negocio ordenado, sin planillas de Excel</text>
</svg>
